{"title":"Rambo.III.1988.REMASTERED.1080p.BluRay.AVC.DTS-HD.MA.5.1-UNTOUCH","magnet":"magnet:?xt=urn:btih:ffba832487830a8b7129d79391cf4c7aeea5aada&dn=Rambo.III.1988.REMASTERED.1080p.BluRay.AVC.DTS-HD.MA.5.1-UNTOUCH&tr=udp%3A%2F%2Ftracker.leechers-paradise.org%3A6969&tr=udp%3A%2F%2Fzer0day.ch%3A1337&tr=udp%3A%2F%2Fopen.demonii.com%3A1337&tr=udp%3A%2F%2Ftracker.coppersurfer.tk%3A6969&tr=udp%3A%2F%2Fexodus.desync.com%3A6969","uploader":"drillsgt49","categoryP":"video","categoryS":"hd___movies","size":"45032288853","seeders":"0","leechers":"0","description":"Video\r\nID : 1\r\nFormat : AVC\r\nFormat/Info : Advanced Video Codec\r\nFormat profile : High@L4.1\r\nFormat settings : CABAC / 4 Ref Frames\r\nFormat settings, CABAC : Yes\r\nFormat settings, ReFrames : 4 frames\r\nCodec ID : V_MPEG4/ISO/AVC\r\nDuration : 1 h 41 min\r\nBit rate mode : Variable\r\nBit rate : 25.1 Mb/s\r\nMaximum bit rate : 32.0 Mb/s\r\nWidth : 1 920 pixels\r\nHeight : 1 080 pixels\r\nDisplay aspect ratio : 16:9\r\nFrame rate mode : Constant\r\nFrame rate : 24.000 FPS\r\nStandard : NTSC\r\nColor space : YUV\r\nChroma subsampling : 4:2:0\r\nBit depth : 8 bits\r\nScan type : Progressive\r\nBits/(Pixel*Frame) : 0.505\r\nStream size : 17.8 GiB (81%)\r\nTitle : Rambo.III.1988.REMASTERED.1080p.BluRay.REMUX.AVC.DTS-HD.MA.5.1-FGT\r\nLanguage : English\r\nDefault : No\r\nForced : No\r\nColor range : Limited\r\nColor primaries : BT.709\r\nTransfer characteristics : BT.709\r\nMatrix coefficients : BT.709\r\n\r\nAudio #1\r\nID : 2\r\nFormat : DTS XLL\r\nFormat/Info : Digital Theater Systems\r\nCommercial name : DTS-HD Master Audio\r\nCodec ID : A_DTS\r\nDuration : 1 h 41 min\r\nBit rate mode : Variable\r\nBit rate : 4 242 kb/s\r\nChannel(s) : 6 channels\r\nChannel layout : C L R Ls Rs LFE\r\nSampling rate : 48.0 kHz\r\nFrame rate : 93.750 FPS (512 SPF)\r\nBit depth : 24 bits\r\nCompression mode : Lossless\r\nStream size : 3.01 GiB (14%)\r\nTitle : Rambo.III.1988.REMASTERED.1080p.BluRay.REMUX.AVC.DTS-HD.MA.5.1-FGT\r\nLanguage : English\r\nDefault : Yes\r\nForced : No\r\n\r\nAudio #2\r\nID : 3\r\nFormat : DTS\r\nFormat/Info : Digital Theater Systems\r\nCodec ID : A_DTS\r\nDuration : 1 h 41 min\r\nBit rate mode : Constant\r\nBit rate : 1 509 kb/s\r\nChannel(s) : 6 channels\r\nChannel layout : C L R Ls Rs LFE\r\nSampling rate : 48.0 kHz\r\nFrame rate : 93.750 FPS (512 SPF)\r\nBit depth : 24 bits\r\nCompression mode : Lossy\r\nStream size : 1.07 GiB (5%)\r\nTitle : Rambo.III.1988.REMASTERED.1080p.BluRay.REMUX.AVC.DTS-HD.MA.5.1-FGT\r\nLanguage : English\r\nDefault : No\r\nForced : No","last_updated":"2018-11-13T12:18:51.049Z","parsed":{"xt":"urn:btih:ffba832487830a8b7129d79391cf4c7aeea5aada","dn":"Rambo.III.1988.REMASTERED.1080p.BluRay.AVC.DTS-HD.MA.5.1-UNTOUCH","tr":["udp://exodus.desync.com:6969","udp://open.demonii.com:1337","udp://tracker.coppersurfer.tk:6969","udp://tracker.leechers-paradise.org:6969","udp://zer0day.ch:1337"],"infoHash":"ffba832487830a8b7129d79391cf4c7aeea5aada","infoHashBuffer":{"type":"Buffer","data":[255,186,131,36,135,131,10,139,113,41,215,147,145,207,76,122,238,165,170,218]},"name":"Rambo.III.1988.REMASTERED.1080p.BluRay.AVC.DTS-HD.MA.5.1-UNTOUCH","announce":["udp://exodus.desync.com:6969","udp://open.demonii.com:1337","udp://tracker.coppersurfer.tk:6969","udp://tracker.leechers-paradise.org:6969","udp://zer0day.ch:1337"],"urlList":[]}}